<?xml version="1.0" encoding="UTF-8"?>
<svg version="1.1" xmlns="http://www.w3.org/2000/svg" width="512" height="512">
<path d="M0 0 C0.888013 -0.00200409 1.776026 -0.00400818 2.69094849 -0.006073 C15.83360281 -0.01333634 28.60006038 0.6332383 41.57373047 2.89013672 C44.63408466 3.38206279 47.7044423 3.69386973 50.78930664 3.98852539 C54.10166918 4.41661038 56.93975604 5.29894463 60.0625 6.5 C64.33002964 8.12149992 68.65351383 9.54512767 73 10.9375 C74.03398926 11.2773291 74.03398926 11.2773291 75.08886719 11.62402344 C78.76502812 12.7865092 81.95126195 13.52740934 85.8125 13.25 C85.8125 13.91 85.8125 14.57 85.8125 15.25 C88.394158 16.39973839 90.97768307 17.54490359 93.5625 18.6875 C94.65691406 19.17573242 94.65691406 19.17573242 95.7734375 19.67382812 C96.48242188 19.98642578 97.19140625 20.29902344 97.921875 20.62109375 C98.57124023 20.90911865 99.22060547 21.19714355 99.88964844 21.49389648 C101.81660684 22.30327597 101.81660684 22.30327597 103.93847656 22.75805664 C105.8125 23.25 105.8125 23.25 107.6875 24.75 C109.80716626 26.47839306 109.80716626 26.47839306 112.875 26.75 C116.13281397 27.30452153 116.67402684 27.91712019 118.8125 30.25 C119.451875 30.394375 120.09125 30.53875 120.75 30.6875 C123.58781513 31.46144958 124.82409741 33.13331337 126.8125 35.25 C129.58510299 37.18798263 129.58510299 37.18798263 131.8125 38.25 C132.8025 38.91 133.7925 39.57 134.8125 40.25 C135.51375 40.58 136.215 40.91 136.9375 41.25 C138.8125 42.25 138.8125 42.25 139.8125 44.25 C140.4725 44.58 141.1325 44.91 141.8125 45.25 C142.4725 45.91 143.1325 46.57 143.8125 47.25 C144.4725 47.58 145.1325 47.91 145.8125 48.25 C146.4725 48.91 147.1325 49.57 147.8125 50.25 C148.8025 50.58 149.7925 50.91 150.8125 51.25 C151.2765625 52.2090625 151.2765625 52.2090625 151.75 53.1875 C152.62635904 55.39165404 152.62635904 55.39165404 154.70385742 56.17993164 C156.9991425 57.34471507 158.02804269 58.43162461 159.61328125 60.43359375 C162.27399894 63.66333291 165.11036659 66.57746115 168.11450195 69.48657227 C175.77678576 76.90677434 182.49954595 84.66632121 188.8125 93.25 C189.45179443 94.10609863 189.45179443 94.10609863 190.10400391 94.97949219 C220.44790131 135.69060085 236.34493876 184.25035344 236.125 234.9375 C236.12226578 236.25219269 236.12226578 236.25219269 236.11947632 237.59344482 C236.07255448 251.02287209 235.48330753 264.05368719 232.8125 277.25 C232.64621094 278.12076172 232.47992188 278.99152344 232.30859375 279.88867188 C226.45456911 310.09110272 215.10657105 338.92830868 197.94921875 364.53271484 C194.14264353 370.25174807 194.14264353 370.25174807 190.8125 376.25 C189.14583333 377.91666667 187.47916667 379.58333333 185.8125 381.25 C184.02587197 383.34306346 182.25802366 385.44590614 180.5 387.5625 C175.02019716 394.0865788 169.10893964 400.09148516 162.98120117 406.00708008 C162.3235376 406.64798584 161.66587402 407.2888916 160.98828125 407.94921875 C160.10523315 408.79746216 160.10523315 408.79746216 159.2043457 409.6628418 C157.57626124 411.31248331 157.57626124 411.31248331 156.8125 414.25 C156.173125 414.394375 155.53375 414.53875 154.875 414.6875 C154.194375 414.873125 153.51375 415.05875 152.8125 415.25 C152.4825 415.91 152.1525 416.57 151.8125 417.25 C151.4825 417.91 151.1525 418.57 150.8125 419.25 C149.48655895 419.61162029 148.15311543 419.94728039 146.8125 420.25 C146.4825 421.24 146.1525 422.23 145.8125 423.25 C143.75 423.9375 143.75 423.9375 141.8125 424.25 C141.8125 424.91 141.8125 425.57 141.8125 426.25 C140.8225 426.58 139.8325 426.91 138.8125 427.25 C138.4825 427.91 138.1525 428.57 137.8125 429.25 C136.8225 429.58 135.8325 429.91 134.8125 430.25 C133.8225 430.91 132.8325 431.57 131.8125 432.25 C130.8225 432.58 129.8325 432.91 128.8125 433.25 C126.87521623 435.12953069 126.87521623 435.12953069 125.5 436.8125 C123.35679389 438.63819409 121.56448877 438.87810963 118.8125 439.25 C118.8125 439.91 118.8125 440.57 118.8125 441.25 C116.27638615 443.1147896 114.38364279 444.18066552 111.23828125 444.5625 C106.48171229 445.517068 102.46475581 447.56576782 98.125 449.6875 C97.27099609 450.09548828 96.41699219 450.50347656 95.53710938 450.92382812 C92.13831353 452.56048315 88.95753377 454.15331082 85.8125 456.25 C83.21779198 457.11490267 80.64017947 457.85396608 78 458.5625 C77.03707031 458.82546875 76.07414062 459.0884375 75.08203125 459.359375 C72.7269188 460.00091101 70.36990528 460.63548266 68.01171875 461.265625 C66.11873047 461.78382813 66.11873047 461.78382813 64.1875 462.3125 C62.40472656 462.79396484 62.40472656 462.79396484 60.5859375 463.28515625 C57.67938536 463.93470795 57.67938536 463.93470795 56.8125 466.25 C55.67554688 466.22035156 54.53859375 466.19070313 53.3671875 466.16015625 C48.77472078 466.16116647 44.44236383 466.85110473 39.9375 467.6875 C27.1242794 470.02429154 14.62494518 470.4857708 1.625 470.5 C0.2929805 470.50300613 0.2929805 470.50300613 -1.06594849 470.506073 C-14.20860281 470.51333634 -26.97506038 469.8667617 -39.94873047 467.60986328 C-43.00908466 467.11793721 -46.0794423 466.80613027 -49.16430664 466.51147461 C-52.47666918 466.08338962 -55.31475604 465.20105537 -58.4375 464 C-62.70502964 462.37850008 -67.02851383 460.95487233 -71.375 459.5625 C-72.06432617 459.33594727 -72.75365234 459.10939453 -73.46386719 458.87597656 C-77.14002812 457.7134908 -80.32626195 456.97259066 -84.1875 457.25 C-84.1875 456.59 -84.1875 455.93 -84.1875 455.25 C-84.95827881 454.91005005 -84.95827881 454.91005005 -85.74462891 454.56323242 C-88.10125394 453.52282729 -90.45688106 452.48018094 -92.8125 451.4375 C-93.62074219 451.08107422 -94.42898437 450.72464844 -95.26171875 450.35742188 C-98.74479103 448.81410936 -102.18042629 447.25361436 -105.57421875 445.51953125 C-108.19281867 444.09006189 -108.19281867 444.09006189 -111.375 443.75 C-114.49344125 443.19561044 -115.20960354 442.60463865 -117.1875 440.25 C-119.85309313 438.47293791 -122.2155615 437.37451727 -125.1875 436.25 C-125.1875 435.59 -125.1875 434.93 -125.1875 434.25 C-125.991875 434.12625 -126.79625 434.0025 -127.625 433.875 C-128.8934375 433.565625 -128.8934375 433.565625 -130.1875 433.25 C-130.5175 432.59 -130.8475 431.93 -131.1875 431.25 C-132.52939957 430.57905022 -133.88418689 429.93332414 -135.25 429.3125 C-137.1875 428.25 -137.1875 428.25 -138.1875 426.25 C-138.8475 425.92 -139.5075 425.59 -140.1875 425.25 C-140.8475 424.59 -141.5075 423.93 -142.1875 423.25 C-143.1775 422.92 -144.1675 422.59 -145.1875 422.25 C-145.6825 420.765 -145.6825 420.765 -146.1875 419.25 C-147.1775 418.92 -148.1675 418.59 -149.1875 418.25 C-150.52083333 416.91666667 -151.85416667 415.58333333 -153.1875 414.25 C-154.1775 413.92 -155.1675 413.59 -156.1875 413.25 C-156.87840071 411.92906153 -157.54164398 410.59353721 -158.1875 409.25 C-159.90201737 407.30936391 -159.90201737 407.30936391 -161.93359375 405.4140625 C-163.05882446 404.32146118 -163.05882446 404.32146118 -164.20678711 403.20678711 C-165.00479736 402.43729736 -165.80280762 401.66780762 -166.625 400.875 C-172.91646243 394.72491875 -178.74073362 388.51770222 -183.92553711 381.40283203 C-186.39673296 377.99903037 -186.39673296 377.99903037 -190.1875 376.25 C-190.74487305 374.39379883 -190.74487305 374.39379883 -191.1875 372.25 C-192.74998055 369.77289669 -194.35097746 367.35544401 -196 364.9375 C-212.9535644 339.32906384 -223.91657107 311.41243256 -230.4375 281.5 C-230.58864258 280.81736084 -230.73978516 280.13472168 -230.89550781 279.43139648 C-233.8846774 264.89883668 -234.56261499 250.35282792 -234.5 235.5625 C-234.49850952 234.68703522 -234.49701904 233.81157043 -234.4954834 232.90957642 C-234.45442522 219.46623862 -233.74680514 206.47401403 -231.1875 193.25 C-230.92811111 191.72162087 -230.67029375 190.19297418 -230.4140625 188.6640625 C-223.53032489 150.00574869 -204.84495285 115.99499303 -181.1875 85.25 C-178.98269758 82.37368786 -178.98269758 82.37368786 -177.1875 79.25 C-176.19112827 78.33800861 -175.16226119 77.4612175 -174.1171875 76.60546875 C-169.97686067 73.12205121 -166.13872836 69.38494751 -162.3125 65.5625 C-161.63703125 64.89927734 -160.9615625 64.23605469 -160.265625 63.55273438 C-159.62367188 62.91271484 -158.98171875 62.27269531 -158.3203125 61.61328125 C-157.74168457 61.03876221 -157.16305664 60.46424316 -156.56689453 59.87231445 C-154.95833074 58.18517334 -154.95833074 58.18517334 -154.1875 55.25 C-153.548125 55.105625 -152.90875 54.96125 -152.25 54.8125 C-151.569375 54.626875 -150.88875 54.44125 -150.1875 54.25 C-149.6925 53.26 -149.6925 53.26 -149.1875 52.25 C-148.1875 50.25 -148.1875 50.25 -146.0625 49.5 C-145.44375 49.4175 -144.825 49.335 -144.1875 49.25 C-144.1875 48.59 -144.1875 47.93 -144.1875 47.25 C-142.8675 46.92 -141.5475 46.59 -140.1875 46.25 C-140.1875 45.59 -140.1875 44.93 -140.1875 44.25 C-139.1975 43.92 -138.2075 43.59 -137.1875 43.25 C-136.6925 42.26 -136.6925 42.26 -136.1875 41.25 C-135.1975 40.92 -134.2075 40.59 -133.1875 40.25 C-132.1975 39.59 -131.2075 38.93 -130.1875 38.25 C-129.1975 37.92 -128.2075 37.59 -127.1875 37.25 C-125.86421429 35.92671429 -124.57134565 34.57223022 -123.3125 33.1875 C-121.04171656 31.11707981 -120.06396133 30.94732396 -117.1875 30.25 C-116.40375 29.59 -115.62 28.93 -114.8125 28.25 C-112.1875 26.25 -112.1875 26.25 -109.4375 25.84375 C-105.59706602 25.14213225 -102.94464194 23.68265254 -99.5625 21.75 C-92.94607841 17.98681383 -92.94607841 17.98681383 -89.1875 17.25 C-87.5130761 16.6030635 -85.84447379 15.94040574 -84.1875 15.25 C-84.1875 14.59 -84.1875 13.93 -84.1875 13.25 C-83.07375 13.1675 -81.96 13.085 -80.8125 13 C-76.33757037 12.45758429 -72.5130408 10.94944599 -68.38671875 9.1875 C-65.36321775 7.89861858 -62.84794459 7.20901917 -59.5625 6.8125 C-58.44875 6.626875 -57.335 6.44125 -56.1875 6.25 C-55.8575 5.59 -55.5275 4.93 -55.1875 4.25 C-54.05054688 4.27964844 -52.91359375 4.30929688 -51.7421875 4.33984375 C-47.14972078 4.33883353 -42.81736383 3.64889527 -38.3125 2.8125 C-25.4992794 0.47570846 -12.99994518 0.0142292 0 0 Z " fill="#184787" transform="translate(255.1875,20.75)"/>
<path d="M0 0 C0.99 0.99 0.99 0.99 2 2 C1.65231267 6.42059602 0.63370657 10.57478699 -0.51074219 14.84985352 C-2.9402852 24.04234127 -3.458786 32.53116673 -3 42 C-1.51113281 42.72703125 -1.51113281 42.72703125 0.0078125 43.46875 C7.00605306 46.91067812 13.954213 50.42107826 20.75 54.25 C21.85859375 54.87390625 22.9671875 55.4978125 24.109375 56.140625 C26.8298779 57.89057011 28.91866922 59.5306245 31 62 C31.12789339 66.8599487 28.04982193 69.50386266 25 73 C23.72147713 75.21587348 23.72147713 75.21587348 23 77 C17.14974442 77.4787933 13.65898715 76.14223578 8.875 73 C8.23191895 72.59571777 7.58883789 72.19143555 6.92626953 71.77490234 C5.59801003 70.93907394 4.27361452 70.09707404 2.953125 69.24902344 C0.50654012 67.68443241 -1.96709002 66.16693537 -4.44482422 64.65234375 C-6.03145797 63.68219629 -7.61353513 62.70460805 -9.1953125 61.7265625 C-10.12085938 61.15679687 -11.04640625 60.58703125 -12 60 C-13.35351562 59.13955078 -13.35351562 59.13955078 -14.734375 58.26171875 C-16.88008614 56.78902644 -16.88008614 56.78902644 -19.125 57.1875 C-21.26800361 58.0500132 -21.26800361 58.0500132 -24 60 C-24.6563953 62.09524857 -24.94178365 64.15267141 -25.27734375 66.3203125 C-26.48838324 70.81097786 -27.85516194 75.38435159 -31.69702148 78.27832031 C-33.68043653 79.32256947 -35.67770919 80.20878131 -37.75 81.0625 C-46.99268378 85.06311749 -46.99268378 85.06311749 -54 92 C-54.48690867 95.4779191 -54.4489615 97.28944847 -52.55859375 100.28125 C-51.50865234 101.37953125 -51.50865234 101.37953125 -50.4375 102.5 C-49.62023437 103.3559375 -48.80296875 104.211875 -47.9609375 105.09375 C-43.31724231 109.70852252 -38.49857019 114.14020664 -33.6796875 118.5703125 C-29.59220492 122.34483728 -25.70823166 126.29058611 -21.85546875 130.3046875 C-20.17280573 132.22484243 -20.17280573 132.22484243 -18 132 C-16.82387581 126.73598787 -15.92824001 121.64175535 -15.625 116.25 C-15.17510023 110.66177132 -13.50590938 107.17288003 -9.20703125 103.4453125 C-2.42424761 99.00348959 9.00880399 97.26217651 17 98 C20.21111227 99.47733464 22.49375904 101.5362377 25 104 C30.47259534 109.19432778 35.56412867 112.48645243 42.55859375 115.4453125 C45 117 45 117 45.88134766 119.28442383 C46.04572919 123.04659628 44.78588599 124.18662567 42.33984375 127.00390625 C41.50694824 127.96441895 40.67405273 128.92493164 39.81591797 129.91455078 C35.38028357 134.81229161 30.84471991 139.60209961 26.18920898 144.29125977 C24.55343486 145.94667398 22.94024917 147.62228616 21.32617188 149.29882812 C14.40086593 156.36633477 8.29699994 161.26373539 -1.80859375 162.4453125 C-5.98339169 163.17091998 -7.26528582 164.74531187 -10.0625 167.875 C-14.65060779 172.83736432 -19.53333411 176.95429755 -25.05297852 180.85498047 C-33.64082255 187.20722321 -36.83726066 195.12326757 -38.75 205.375 C-39.13519734 207.32139452 -39.52559446 209.26676921 -39.921875 211.2109375 C-40.08268555 212.05962402 -40.24349609 212.90831055 -40.40917969 213.78271484 C-41 216 -41 216 -43 219 C-46.125 218.9375 -46.125 218.9375 -50 218 C-51.32617188 216.39257812 -51.32617188 216.39257812 -52.59375 214.46875 C-54.47132954 212.15994615 -55.43600738 211.13746078 -58.35498047 210.42602539 C-61.05814517 210.31231723 -63.67538068 210.38727507 -66.375 210.5625 C-67.76525391 210.60987305 -67.76525391 210.60987305 -69.18359375 210.65820312 C-71.45904237 210.74030694 -73.72783746 210.85500225 -76 211 C-77.30203187 213.49505641 -78.59160266 215.99537682 -79.875 218.5 C-80.23980469 219.19609375 -80.60460937 219.8921875 -80.98046875 220.609375 C-83.39985156 225.36016307 -84.88244165 229.7847277 -86 235 C-86.226875 236.03125 -86.45375 237.0625 -86.6875 238.125 C-85.82499141 241.7318541 -84.76005552 242.20375536 -81.75 244.25 C-80.18661662 245.20029186 -78.60329752 246.11871726 -77 247 C-76.36320312 247.37253906 -75.72640625 247.74507812 -75.0703125 248.12890625 C-72.41689554 249.24534395 -69.98849857 249.41257557 -67.125 249.6875 C-59.32014637 250.79995651 -52.54855515 253.59605254 -46 258 C-44.2265625 260.5 -44.2265625 260.5 -43 263 C-42.649375 263.64324219 -42.29875 264.28648437 -41.9375 264.94921875 C-41.628125 265.52285156 -41.31875 266.09648437 -41 266.6875 C-39.22599673 270.15669978 -39.22599673 270.15669978 -36 272 C-33.60024071 272.33488316 -33.60024071 272.33488316 -30.9140625 272.34375 C-29.90698242 272.37170654 -28.89990234 272.39966309 -27.86230469 272.4284668 C-26.79399414 272.45207275 -25.72568359 272.47567871 -24.625 272.5 C-6.84824101 273.10632479 6.93889286 274.26056575 19.75 287.8125 C31.36434747 299.99220362 46.39706211 305.73622652 61.62133789 312.30883789 C83.90927456 322.02139502 83.90927456 322.02139502 88 330 C88.51657859 336.40557453 86.20617291 339.82719203 82.15625 344.640625 C76.49695964 350.83303691 70.54338426 356.63377 64.1875 362.10546875 C45.71790913 378.1014537 32.4539443 394.93910283 22 417 C21.33758298 418.3354497 20.67339209 419.67005063 20 421 C14.05441306 420.43337359 9.06975368 418.69929345 3.5625 416.4375 C2.69592773 416.086875 1.82935547 415.73625 0.93652344 415.375 C-7.25887049 412.00201473 -15.15750366 408.1184059 -23 404 C-23.01417969 402.88625 -23.02835937 401.7725 -23.04296875 400.625 C-23.5782705 379.72746559 -31.28272172 364.18371882 -41.875 346.5 C-47.02309521 337.70882118 -49.03432845 330.27145611 -48 320 C-45.75967841 312.40779905 -41.09324706 307.31598078 -34.625 303 C-31.6146006 300.81167121 -31.10238334 300.39490717 -30.125 296.625 C-31.87866212 289.35982836 -36.09917849 285.33452655 -42.25 281.3125 C-48.01304887 277.87187381 -53.96262131 274.86872956 -60.05078125 272.05078125 C-63.95989837 270.19414647 -67.32881646 268.07847443 -70.8125 265.5 C-79.78119352 259.17713891 -88.02310943 257.54668686 -98.80664062 257.32666016 C-106.37421136 257.1478082 -106.37421136 257.1478082 -109 255 C-112.30810124 249.80068647 -112.35024474 245.66217021 -112.15234375 239.7265625 C-112.12414402 237.91406568 -112.0961558 236.10156555 -112.06835938 234.2890625 C-112.00629493 231.4561765 -111.93746331 228.62360354 -111.86303711 225.79101562 C-111.79628145 223.04039543 -111.75457869 220.29018649 -111.71484375 217.5390625 C-111.68478745 216.70235016 -111.65473114 215.86563782 -111.62376404 215.00357056 C-111.53714696 208.05629519 -113.48306336 203.0142346 -117.9375 197.6796875 C-124.49711526 191.94002415 -131.70964364 187.76345212 -140 185 C-136.77478481 126.39254484 -105.41878858 73.94538929 -63 35 C-57.58895509 30.30612247 -51.89670256 26.0606203 -46 22 C-45.30455078 21.51885742 -44.60910156 21.03771484 -43.89257812 20.54199219 C-9.00157921 -3.34344371 -9.00157921 -3.34344371 0 0 Z " fill="#65B767" transform="translate(172,50)"/>
<path d="M0 0 C14.77471772 1.89009902 29.67861207 21.549142 38.29199219 32.47436523 C52.01810545 50.4140287 63.66211059 69.98124577 72 91 C72.2573291 91.64163086 72.5146582 92.28326172 72.77978516 92.94433594 C86.26974116 127.13483874 90.68246863 165.30348276 85.34179688 201.66113281 C85.10434351 203.28599225 84.8828206 204.9132275 84.67382812 206.54199219 C82.39956127 224.10010321 77.06424176 240.43954183 71 257 C70.73300293 257.77077881 70.46600586 258.54155762 70.19091797 259.33569336 C69.11777077 262.20574687 68.3041858 263.78675087 65.765625 265.56640625 C64.93546875 265.89511719 64.1053125 266.22382813 63.25 266.5625 C48.59103982 273.19292563 37.45384389 290.29361301 31.84375 305.0390625 C31.14126467 307.5322582 30.99860881 309.56712591 30.9921875 312.18481445 C30.94777227 318.99283624 30.52664708 323.30207685 25.90625 328.50390625 C24.1397778 330.22737476 22.33556123 331.91280829 20.5 333.5625 C19.55181396 334.4587207 18.60362793 335.35494141 17.62670898 336.27832031 C9.54288261 343.80162649 1.0893585 350.73251632 -8 357 C-8.59296875 357.4110498 -9.1859375 357.82209961 -9.796875 358.24560547 C-16.85655403 363.0812471 -24.23866476 367.36023117 -31.6875 371.5625 C-32.46665771 372.00489014 -33.24581543 372.44728027 -34.04858398 372.90307617 C-34.77891846 373.3076001 -35.50925293 373.71212402 -36.26171875 374.12890625 C-36.91100342 374.49056885 -37.56028809 374.85223145 -38.22924805 375.22485352 C-40 376 -40 376 -43 376 C-45.47335207 366.25381506 -46.39069427 356.7309764 -46.5625 346.6875 C-46.60117187 345.60355957 -46.63984375 344.51961914 -46.6796875 343.40283203 C-46.71911416 332.62456887 -42.15937775 325.01178136 -35.19921875 317.046875 C-31.91005676 311.43280047 -33.18982609 305.49061683 -34.546875 299.5234375 C-34.71801819 298.72334763 -34.88916138 297.92325775 -35.06549072 297.09892273 C-35.42994757 295.39768125 -35.7993505 293.6974929 -36.17333984 291.99832153 C-37.13684947 287.61515836 -38.06209098 283.22402708 -38.984375 278.83203125 C-39.254776 277.54742256 -39.254776 277.54742256 -39.53063965 276.23686218 C-41.47699386 266.88479731 -42.89610757 257.48657556 -44 248 C-45.83111328 248.433125 -45.83111328 248.433125 -47.69921875 248.875 C-71.9106797 254.41560014 -71.9106797 254.41560014 -82.09765625 249.78515625 C-84.91486406 248.62240723 -87.82442125 248.19977212 -90.82421875 247.72265625 C-98.4373044 245.19407305 -101.55066874 237.62075431 -105 231 C-108.44530279 223.96835863 -110.61872811 217.89751355 -108.08203125 210.22265625 C-105.28636949 203.19278833 -101.89736929 196.48007574 -98 190 C-97.46117187 189.09378906 -96.92234375 188.18757812 -96.3671875 187.25390625 C-90.80131299 178.76052632 -83.45745866 173.36580418 -75 168 C-74.09725342 167.42596436 -74.09725342 167.42596436 -73.17626953 166.84033203 C-64.24188267 161.3443379 -57.53045938 159.90856568 -47 161 C-42.13064162 162.1872004 -37.53971665 163.86655579 -32.875 165.6875 C-31.70324219 166.12255859 -30.53148437 166.55761719 -29.32421875 167.00585938 C-19.95119676 170.51684153 -19.95119676 170.51684153 -16.296875 172.37304688 C-5.94340406 177.49695851 5.42075502 177.40494282 16.75 178.125 C19.94028971 178.33704197 23.12978524 178.55524273 26.31866455 178.78756714 C28.29009002 178.93036183 30.2624159 179.06140319 32.23553467 179.17849731 C38.96913123 179.65435418 45.11883655 180.56209246 50.4375 185.0625 C52.79887959 187.99061069 53.13693476 189.75301872 53.24609375 193.4453125 C53.27775635 194.35071777 53.30941895 195.25612305 53.34204102 196.18896484 C53.37354248 197.15785645 53.40504395 198.12674805 53.4375 199.125 C53.79389361 208.51747257 54.62792068 217.70183141 56 227 C57.5916103 225.32030439 59.17290218 223.63082902 60.75 221.9375 C62.07257813 220.52791016 62.07257813 220.52791016 63.421875 219.08984375 C68.3857497 213.40809108 71.07646277 206.7717289 73.75 199.8125 C74.22373047 198.62237305 74.22373047 198.62237305 74.70703125 197.40820312 C75.00480469 196.64056641 75.30257812 195.87292969 75.609375 195.08203125 C75.87717773 194.39343018 76.14498047 193.7048291 76.42089844 192.99536133 C77.1858152 190.70603513 77.1858152 190.70603513 77 187 C75.74641806 185.26037792 75.74641806 185.26037792 73.96484375 183.71484375 C73.32321289 183.10688965 72.68158203 182.49893555 72.02050781 181.87255859 C71.33311523 181.23398926 70.64572266 180.59541992 69.9375 179.9375 C63.16027801 173.42508758 57.58859832 167.08143304 53.859375 158.3203125 C51.0362765 154.79737026 47.8107944 154.7057067 43.5 154 C36.10709239 152.59761568 29.67302303 150.58638242 23 147 C23 146.34 23 145.68 23 145 C23.8878418 144.85900879 24.77568359 144.71801758 25.69042969 144.57275391 C28.99372611 144.04496996 32.29595903 143.51129452 35.59765625 142.97363281 C37.02501049 142.74243251 38.45274479 142.51356567 39.88085938 142.28710938 C41.93725022 141.96060721 43.99211407 141.62565113 46.046875 141.2890625 C47.90070801 140.99056396 47.90070801 140.99056396 49.79199219 140.68603516 C52.56033296 140.09402316 54.57945942 139.42167121 57 138 C57.74909729 131.18413943 55.3169871 126.87168371 51.9375 121.0625 C51.23850586 119.75055664 51.23850586 119.75055664 50.52539062 118.41210938 C49.16339899 116.03835253 47.87786306 113.99130274 46 112 C42.60459872 111.1815613 42.60459872 111.1815613 39 112 C37.63813388 112.05991879 36.27614563 112.11711067 34.9140625 112.171875 C30.2598013 112.68871728 25.94140101 113.33550028 22 116 C17.51256494 121.8263958 15.18216755 129.04847021 13 136 C9.94367141 132.98590047 6.99458416 129.93491108 4.1875 126.6875 C3.58292969 125.99011719 2.97835937 125.29273438 2.35546875 124.57421875 C1.90816406 124.05472656 1.46085937 123.53523438 1 123 C-6.99019532 123.52701288 -11.17239626 126.28696432 -16.7734375 131.90625 C-19 134 -19 134 -23 136 C-22.34 131.38 -21.68 126.76 -21 122 C-27.93 122 -34.86 122 -42 122 C-42.33 123.65 -42.66 125.3 -43 127 C-46.48833105 138.90645225 -46.48833105 138.90645225 -50.9375 142.125 C-52.70703125 142.58984375 -52.70703125 142.58984375 -55 143 C-56.67642578 143.40412109 -56.67642578 143.40412109 -58.38671875 143.81640625 C-69.55607806 146.41908872 -69.55607806 146.41908872 -74 146 C-76.48319402 143.51680598 -76.26011201 142.03333953 -76.2734375 138.63867188 C-76.26570313 137.95353516 -76.25796875 137.26839844 -76.25 136.5625 C-76.26160156 135.5405957 -76.26160156 135.5405957 -76.2734375 134.49804688 C-76.25889434 130.78590558 -76.10940418 129.16410628 -74 126 C-71.8984375 125.078125 -71.8984375 125.078125 -69.375 124.25 C-58.09406948 119.97889625 -52.86131721 111.09772535 -47.8125 100.6875 C-44.11851211 93.11851211 -44.11851211 93.11851211 -43 92 C-43.77190674 91.98018066 -44.54381348 91.96036133 -45.33911133 91.93994141 C-48.83058958 91.84478857 -52.32146152 91.73506953 -55.8125 91.625 C-57.02744141 91.5940625 -58.24238281 91.563125 -59.49414062 91.53125 C-60.65751953 91.49257812 -61.82089844 91.45390625 -63.01953125 91.4140625 C-64.62985229 91.36693115 -64.62985229 91.36693115 -66.27270508 91.31884766 C-69 91 -69 91 -72 89 C-72.54423864 84.95708438 -72.33029304 82.63416264 -70.4375 79 C-61.77612857 68.33985055 -61.77612857 68.33985055 -56.3515625 67.67578125 C-51.91704766 68.10476112 -49.14107664 69.92740912 -45.375 72.1875 C-36.58116782 77.19290252 -27.65336028 79.55564813 -17.79321289 81.5703125 C-16 82 -16 82 -14 83 C-5.69567701 83.80152485 0.52633487 82.53120041 8 79 C8.99 78.67 9.98 78.34 11 78 C15.58547318 70.35754469 14.96236644 60.5564174 13.17578125 52.09765625 C12.48106818 49.59513966 11.76394077 47.09872641 11.0234375 44.609375 C9.56660492 39.47153797 8.74740922 34.28103619 8 29 C3.12806559 30.62126245 1.61018632 32.40864386 -0.875 36.7421875 C-4.25844597 43.53257559 -5.68646761 50.77828332 -7.15625 58.1796875 C-8.01758868 61.05879179 -8.5927487 62.25681803 -11 64 C-13.875 64.5 -13.875 64.5 -17 64 C-19.4375 61.9375 -19.4375 61.9375 -22 59 C-23.09966293 57.93283942 -24.20418147 56.87066837 -25.3125 55.8125 C-29.60847049 51.53545449 -33.29238217 46.78619756 -37 42 C-32.43658175 34.51599407 -26.9402272 28.82832383 -19 25 C-17.80375 24.71125 -16.6075 24.4225 -15.375 24.125 C-11.08123365 22.69374455 -9.20164175 20.81027164 -7 17 C-4.38050747 11.44871535 -1.94254897 5.82764691 0 0 Z " fill="#65B767" transform="translate(394,83)"/>
<path d="M0 0 C4.98978787 12.8684003 1.95420434 27.30492291 -2 40 C-2.38542969 41.25425781 -2.77085937 42.50851563 -3.16796875 43.80078125 C-7.4517975 56.70772159 -13.83697721 66.32030061 -25.5 73.5 C-36.50841236 80.32970889 -44.60414637 91.22451833 -50 103 C-55.72043683 103.45763495 -58.59883843 102.71653644 -63 99 C-70.62451658 89.25756215 -71.05925463 76.77513797 -71.4921875 64.8515625 C-71.52555206 63.94425385 -71.55891663 63.03694519 -71.59329224 62.10214233 C-71.72632634 58.31433253 -71.85045269 54.52654185 -71.95361328 50.73779297 C-72.03315228 47.9415446 -72.13606369 45.14691084 -72.2421875 42.3515625 C-72.25901581 41.50147614 -72.27584412 40.65138977 -72.29318237 39.77554321 C-72.51475946 34.43858579 -73.40683758 31.2022557 -77 27 C-80.27288363 25.18722428 -80.27288363 25.18722428 -83.9375 23.9375 C-89.06712318 22.04475134 -92.60124048 20.38261097 -96 16 C-96.48828125 13.10546875 -96.48828125 13.10546875 -96.3125 10.1875 C-96.26738281 9.21167969 -96.22226563 8.23585938 -96.17578125 7.23046875 C-96.11777344 6.49441406 -96.05976563 5.75835937 -96 5 C-66.96560478 -2.65177291 -29.31922016 -9.77307339 0 0 Z " fill="#65B767" transform="translate(291,34)"/>
<path d="M0 0 C2.96101753 7.63630837 2.17604345 15.94112192 2 24 C1.67 24 1.34 24 1 24 C0.01 12.615 0.01 12.615 -1 1 C-3.31 1 -5.62 1 -8 1 C-8.66 0.67 -9.32 0.34 -10 0 C-11.40782132 -0.09433539 -12.81997939 -0.12793826 -14.23095703 -0.12939453 C-15.5433989 -0.13412277 -15.5433989 -0.13412277 -16.88235474 -0.13894653 C-18.30570633 -0.13591019 -18.30570633 -0.13591019 -19.7578125 -0.1328125 C-21.22334061 -0.13424759 -21.22334061 -0.13424759 -22.71847534 -0.13571167 C-24.79148421 -0.1363933 -26.86449521 -0.13454019 -28.9375 -0.13037109 C-32.09119561 -0.12505696 -35.24474655 -0.13029877 -38.3984375 -0.13671875 C-40.41406281 -0.13605729 -42.42968803 -0.13477473 -44.4453125 -0.1328125 C-45.38206818 -0.13483673 -46.31882385 -0.13686096 -47.28396606 -0.13894653 C-51.38512395 -0.1244842 -55.37386703 -0.01572716 -59.44091797 0.53564453 C-62.94288246 0.99254784 -65.57488799 0.7706502 -69 0 C-69 -0.33 -69 -0.66 -69 -1 C-47.73703559 -4.22689975 -20.76041932 -6.92013977 0 0 Z " fill="#5BA182" transform="translate(291,34)"/>
<path d="M0 0 C0.66 0.33 1.32 0.66 2 1 C-3.73473773 7.36691355 -9.53973719 13.65347402 -15.5625 19.75 C-16.07458008 20.2749707 -16.58666016 20.79994141 -17.11425781 21.34082031 C-18.37062068 22.60056277 -19.68104277 23.80595204 -21 25 C-21.66 25 -22.32 25 -23 25 C-23.66 26.32 -24.32 27.64 -25 29 C-25.99 29 -26.98 29 -28 29 C-18.97438538 19.01712322 -9.57471769 9.45585661 0 0 Z " fill="#65AF7A" transform="translate(109,85)"/>
<path d="M0 0 C0.99 0.495 0.99 0.495 2 1 C2.67016602 3.02539062 2.67016602 3.02539062 3.25390625 5.65625 C3.46853516 6.59597656 3.68316406 7.53570312 3.90429688 8.50390625 C4.12150391 9.49261719 4.33871094 10.48132813 4.5625 11.5 C4.99820647 13.44861142 5.43685077 15.39656907 5.87890625 17.34375 C6.16616577 18.64602539 6.16616577 18.64602539 6.45922852 19.97460938 C6.81374569 21.98066904 6.81374569 21.98066904 8 23 C9.63043515 32.0090468 10.30684878 40.84567805 10 50 C9.67 50 9.34 50 9 50 C8.93006836 49.42258057 8.86013672 48.84516113 8.78808594 48.25024414 C7.39083267 36.90935489 5.70207578 25.82715837 2.91796875 14.7421875 C1.72114997 9.86324115 0.81342799 4.95548896 0 0 Z " fill="#195070" transform="translate(471,188)"/>
<path d="M0 0 C0.66 0 1.32 0 2 0 C2.24179823 13.50040145 1.71470076 26.60390033 0 40 C-0.33 40 -0.66 40 -1 40 C-1.11978427 26.62409026 -0.85439108 13.34986067 0 0 Z " fill="#5FA77D" transform="translate(61,259)"/>
<path d="M0 0 C0.33 0 0.66 0 1 0 C0.41744692 7.2236582 -0.66652361 14.28101402 -1.98364258 21.40185547 C-2.85975552 26.34683389 -3.13098472 30.97702078 -3 36 C-3.99 36 -4.98 36 -6 36 C-5.74017041 23.69352561 -2.77612844 11.93505797 0 0 Z " fill="#5FA580" transform="translate(38,199)"/>
<path d="M0 0 C-5.60752181 1.70663707 -11.24237834 2.91103333 -17 4 C-17 4.66 -17 5.32 -17 6 C-18.98 5.34 -20.96 4.68 -23 4 C-23 3.34 -23 2.68 -23 2 C-19.91879316 1.4660256 -16.83482141 0.95014449 -13.75 0.4375 C-12.44095703 0.21030273 -12.44095703 0.21030273 -11.10546875 -0.02148438 C-10.26113281 -0.16005859 -9.41679687 -0.29863281 -8.546875 -0.44140625 C-7.77182617 -0.57232666 -6.99677734 -0.70324707 -6.19824219 -0.83813477 C-3.88826153 -1.00822774 -2.19914787 -0.68559092 0 0 Z " fill="#5EA581" transform="translate(440,226)"/>
<path d="M0 0 C0 3 0 3 -1.375 4.6875 C-3 6 -3 6 -5 6 C-5.25007812 6.58523438 -5.50015625 7.17046875 -5.7578125 7.7734375 C-7.16476141 10.29532706 -8.68712804 11.75086062 -10.875 13.625 C-11.55304688 14.21539062 -12.23109375 14.80578125 -12.9296875 15.4140625 C-14.88666469 16.91318087 -16.76048537 17.98569068 -19 19 C-13.17078615 12.03337857 -7.08184718 5.70002334 0 0 Z " fill="#1D556F" transform="translate(236,411)"/>
<path d="M0 0 C0.66 0.33 1.32 0.66 2 1 C1.154375 1.845625 0.30875 2.69125 -0.5625 3.5625 C-2.87182987 6.32322862 -3 6.83495922 -3 10.6875 C-2.06227128 13.79372639 -1.5577635 15.10947915 1 17 C0.67 17.66 0.34 18.32 0 19 C-5.68665377 13.2794971 -5.68665377 13.2794971 -6.75 8.9375 C-5.64874902 4.62426698 -3.32507389 2.90943965 0 0 Z " fill="#195070" transform="translate(123,136)"/>
<path d="M0 0 C0.33 0 0.66 0 1 0 C1.04254356 1.99954746 1.04080783 4.00041636 1 6 C0.67 6.33 0.34 6.66 0 7 C-0.34568689 12.39881588 -0.11582647 17.69982429 1 23 C-2.30226946 19.69773054 -2.93297314 16.81772767 -3.3125 12.1875 C-3.21802421 7.67842834 -1.76503109 4.11840588 0 0 Z " fill="#5EA580" transform="translate(288,288)"/>
<path d="M0 0 C1.04800781 0.41958984 1.04800781 0.41958984 2.1171875 0.84765625 C4.07858632 1.63168423 6.04222656 2.41012292 8.0078125 3.18359375 C9.55082031 3.80427734 9.55082031 3.80427734 11.125 4.4375 C12.15882813 4.84871094 13.19265625 5.25992188 14.2578125 5.68359375 C16.77171741 6.89041135 18.22098373 7.89585317 20 10 C19.67 10.66 19.34 11.32 19 12 C18.21625 11.4225 17.4325 10.845 16.625 10.25 C13.08347172 7.84953692 9.29777647 6.51106287 5.26953125 5.125 C2.6471265 3.82508164 1.56063019 2.44007326 0 0 Z " fill="#60AA7E" transform="translate(197,51)"/>
<path d="M0 0 C12.54 0 25.08 0 38 0 C38 0.33 38 0.66 38 1 C25.46 1 12.92 1 0 1 C0 0.67 0 0.34 0 0 Z " fill="#1E5083" transform="translate(237,492)"/>
<path d="M0 0 C0.33 0 0.66 0 1 0 C1 12.54 1 25.08 1 38 C0.67 38 0.34 38 0 38 C0 25.46 0 12.92 0 0 Z " fill="#1E5083" transform="translate(492,237)"/>
<path d="M0 0 C0.33 0 0.66 0 1 0 C1 12.54 1 25.08 1 38 C0.67 38 0.34 38 0 38 C0 25.46 0 12.92 0 0 Z " fill="#1D5083" transform="translate(19,237)"/>
<path d="M0 0 C12.54 0 25.08 0 38 0 C38 0.33 38 0.66 38 1 C25.46 1 12.92 1 0 1 C0 0.67 0 0.34 0 0 Z " fill="#1E5083" transform="translate(237,19)"/>
<path d="M0 0 C0.66 0.33 1.32 0.66 2 1 C-0.54782974 3.97246802 -3.45340883 5.41535288 -7 7 C-7.66 7 -8.32 7 -9 7 C-9.33 7.99 -9.66 8.98 -10 10 C-11.84765625 10.73046875 -11.84765625 10.73046875 -14.0625 11.1875 C-14.79597656 11.34605469 -15.52945312 11.50460937 -16.28515625 11.66796875 C-16.85105469 11.77753906 -17.41695313 11.88710938 -18 12 C-14.87189356 8.68767688 -11.32001438 6.578774 -7.4375 4.25 C-6.75236328 3.82589844 -6.06722656 3.40179688 -5.36132812 2.96484375 C-3.61215357 1.91087596 -1.80905993 0.947503 0 0 Z " fill="#1B5370" transform="translate(380,443)"/>
<path d="M0 0 C0.33 0.99 0.66 1.98 1 3 C-0.56089026 4.41844009 -2.1237889 5.83467025 -3.6875 7.25 C-4.55761719 8.03890625 -5.42773438 8.8278125 -6.32421875 9.640625 C-8.82420863 11.84499564 -11.37945728 13.94133941 -14 16 C-14.66 15.67 -15.32 15.34 -16 15 C-15.32626343 14.37170288 -15.32626343 14.37170288 -14.63891602 13.73071289 C-12.61327169 11.84149326 -10.58788262 9.9520002 -8.5625 8.0625 C-7.85544922 7.40314453 -7.14839844 6.74378906 -6.41992188 6.06445312 C-5.74638672 5.43603516 -5.07285156 4.80761719 -4.37890625 4.16015625 C-3.7557251 3.57886963 -3.13254395 2.99758301 -2.49047852 2.39868164 C-1.65000401 1.609971 -0.81500364 0.81500364 0 0 Z " fill="#1A5370" transform="translate(166,213)"/>
<path d="M0 0 C0.66 0.33 1.32 0.66 2 1 C1.16855469 1.70576172 1.16855469 1.70576172 0.3203125 2.42578125 C-0.76636719 3.35970703 -0.76636719 3.35970703 -1.875 4.3125 C-2.59429687 4.92738281 -3.31359375 5.54226563 -4.0546875 6.17578125 C-7.27858242 9.19899195 -8.30868987 11.73692089 -9 16 C-9.66 16 -10.32 16 -11 16 C-10.84207033 9.68281329 -7.32493138 6.19272824 -3 2 C-2.01 1.34 -1.02 0.68 0 0 Z " fill="#63AB7F" transform="translate(136,354)"/>
<path d="M0 0 C1.21940083 3.6582025 0.63709904 4.58448676 -0.8125 8.0625 C-1.16957031 8.94035156 -1.52664062 9.81820313 -1.89453125 10.72265625 C-3 13 -3 13 -5 15 C-7.125 14.625 -7.125 14.625 -9 14 C-8.37351563 13.92394531 -7.74703125 13.84789062 -7.1015625 13.76953125 C-4.83076877 13.2089343 -4.83076877 13.2089343 -4.0234375 11.07421875 C-3.80945313 10.28660156 -3.59546875 9.49898438 -3.375 8.6875 C-2.50339612 5.58561559 -1.52358104 2.84532015 0 0 Z " fill="#1A5272" transform="translate(197,458)"/>
<path d="M0 0 C7.59 0 15.18 0 23 0 C22.01 1.98 21.02 3.96 20 6 C19.67 6 19.34 6 19 6 C19 4.35 19 2.7 19 1 C12.73 1 6.46 1 0 1 C0 0.67 0 0.34 0 0 Z " fill="#134872" transform="translate(328,175)"/>
<path d="M0 0 C1.3656528 3.10375636 0.93171529 4.17884091 -0.3125 7.4375 C-0.869375 8.613125 -1.42625 9.78875 -2 11 C-2.67276716 12.6642135 -3.34206835 14.32986582 -4 16 C-4.66 16 -5.32 16 -6 16 C-4.25192871 10.53262809 -2.34205919 5.24175152 0 0 Z " fill="#60A87E" transform="translate(472,273)"/>
<path d="M0 0 C1.32 0.66 2.64 1.32 4 2 C4.08114106 3.77007714 4.13925505 5.54122098 4.1875 7.3125 C4.22230469 8.29863281 4.25710937 9.28476562 4.29296875 10.30078125 C4 13 4 13 2.48828125 14.85546875 C1.99714844 15.23316406 1.50601563 15.61085938 1 16 C0.34 15.67 -0.32 15.34 -1 15 C-0.505 14.649375 -0.01 14.29875 0.5 13.9375 C2.78708373 10.98335018 2.31359573 8.63771042 2 5 C1.1025173 2.16621868 1.1025173 2.16621868 0 0 Z " fill="#61AA7F" transform="translate(139,338)"/>
<path d="M0 0 C0.66 0 1.32 0 2 0 C1.39301257 4.12751449 -0.03810791 7.3321148 -2 11 C-4 9.625 -4 9.625 -6 8 C-6 7.34 -6 6.68 -6 6 C-4.68 6 -3.36 6 -2 6 C-1.34 4.02 -0.68 2.04 0 0 Z " fill="#63AA83" transform="translate(409,208)"/>
<path d="M0 0 C-2.87937337 2.87937337 -6.09889934 2.84106627 -10 3 C-13.5 2.5625 -13.5 2.5625 -16 2 C-16 1.67 -16 1.34 -16 1 C-10.59255982 0.22750855 -5.46137814 -0.09752461 0 0 Z " fill="#5CA37C" transform="translate(238,32)"/>
<path d="M0 0 C2.49361571 1.20381448 4.68143083 2.45428722 7 4 C7 4.66 7 5.32 7 6 C8.32 6.66 9.64 7.32 11 8 C10.34 8.66 9.68 9.32 9 10 C7.49702124 8.52386015 5.99768715 7.04400843 4.5 5.5625 C3.6646875 4.73878906 2.829375 3.91507812 1.96875 3.06640625 C0 1 0 1 0 0 Z " fill="#1F5871" transform="translate(409,91)"/>
<path d="M0 0 C3 3 3 3 3.14453125 4.97265625 C3.03496094 5.66230469 2.92539062 6.35195313 2.8125 7.0625 C2.71582031 7.75472656 2.61914062 8.44695312 2.51953125 9.16015625 C2 11 2 11 0 13 C0 8.71 0 4.42 0 0 Z " fill="#5BA17E" transform="translate(257,377)"/>
<path d="M0 0 C0.5625 1.9375 0.5625 1.9375 1 4 C0 5 0 5 -2.875 5.1875 C-6 5 -6 5 -9 3 C-8.67 2.34 -8.34 1.68 -8 1 C-5.69 1.33 -3.38 1.66 -1 2 C-0.67 1.34 -0.34 0.68 0 0 Z " fill="#1B5373" transform="translate(130,266)"/>
<path d="M0 0 C8.19256018 0.35010941 8.19256018 0.35010941 11.5625 3.0625 C12.036875 3.701875 12.51125 4.34125 13 5 C11.39402675 4.54803755 9.79027492 4.08817673 8.1875 3.625 C6.84751953 3.24214844 6.84751953 3.24214844 5.48046875 2.8515625 C3 2 3 2 0 0 Z " fill="#1F5770" transform="translate(364,250)"/>
<path d="M0 0 C0.82638376 2.89234315 1 4.88742431 1 8 C0.34 8 -0.32 8 -1 8 C-1.33 8.99 -1.66 9.98 -2 11 C-3 9 -3 9 -2.44140625 6.8359375 C-2.15136719 6.02382812 -1.86132812 5.21171875 -1.5625 4.375 C-1.27503906 3.55773437 -0.98757812 2.74046875 -0.69140625 1.8984375 C-0.46324219 1.27195313 -0.23507813 0.64546875 0 0 Z " fill="#285A8B" transform="translate(34,176)"/>
<path d="M0 0 C2.64 0 5.28 0 8 0 C8 0.33 8 0.66 8 1 C5.36 1 2.72 1 0 1 C0 0.67 0 0.34 0 0 Z " fill="#194277" transform="translate(276,491)"/>
<path d="M0 0 C2.64 0 5.28 0 8 0 C8 0.33 8 0.66 8 1 C5.36 1 2.72 1 0 1 C0 0.67 0 0.34 0 0 Z " fill="#1B4378" transform="translate(228,491)"/>
<path d="M0 0 C0.33 0 0.66 0 1 0 C1 2.64 1 5.28 1 8 C0.67 8 0.34 8 0 8 C0 5.36 0 2.72 0 0 Z " fill="#1B4275" transform="translate(491,276)"/>
<path d="M0 0 C0.33 0 0.66 0 1 0 C1 2.64 1 5.28 1 8 C0.67 8 0.34 8 0 8 C0 5.36 0 2.72 0 0 Z " fill="#1B4276" transform="translate(20,276)"/>
<path d="M0 0 C0.33 0 0.66 0 1 0 C1 2.64 1 5.28 1 8 C0.67 8 0.34 8 0 8 C0 5.36 0 2.72 0 0 Z " fill="#1A4276" transform="translate(491,228)"/>
<path d="M0 0 C0.33 0 0.66 0 1 0 C1 2.64 1 5.28 1 8 C0.67 8 0.34 8 0 8 C0 5.36 0 2.72 0 0 Z " fill="#1B4376" transform="translate(20,228)"/>
<path d="M0 0 C2.64 0 5.28 0 8 0 C8 0.33 8 0.66 8 1 C5.36 1 2.72 1 0 1 C0 0.67 0 0.34 0 0 Z " fill="#1A4278" transform="translate(276,20)"/>
<path d="M0 0 C2.64 0 5.28 0 8 0 C8 0.33 8 0.66 8 1 C5.36 1 2.72 1 0 1 C0 0.67 0 0.34 0 0 Z " fill="#1A4378" transform="translate(228,20)"/>
<path d="M0 0 C1.98 0 3.96 0 6 0 C6 0.33 6 0.66 6 1 C4.02 1 2.04 1 0 1 C0 0.67 0 0.34 0 0 Z " fill="#235781" transform="translate(287,490)"/>
<path d="M0 0 C1.98 0 3.96 0 6 0 C6 0.33 6 0.66 6 1 C4.02 1 2.04 1 0 1 C0 0.67 0 0.34 0 0 Z " fill="#255680" transform="translate(219,490)"/>
<path d="M0 0 C0.33 0 0.66 0 1 0 C1 1.98 1 3.96 1 6 C0.67 6 0.34 6 0 6 C0 4.02 0 2.04 0 0 Z " fill="#235780" transform="translate(490,287)"/>
<path d="M0 0 C0.33 0 0.66 0 1 0 C1 1.98 1 3.96 1 6 C0.67 6 0.34 6 0 6 C0 4.02 0 2.04 0 0 Z " fill="#22577F" transform="translate(21,287)"/>
<path d="M0 0 C0.33 0 0.66 0 1 0 C1 1.98 1 3.96 1 6 C0.67 6 0.34 6 0 6 C0 4.02 0 2.04 0 0 Z " fill="#235780" transform="translate(490,219)"/>
<path d="M0 0 C0.33 0 0.66 0 1 0 C1 1.98 1 3.96 1 6 C0.67 6 0.34 6 0 6 C0 4.02 0 2.04 0 0 Z " fill="#225780" transform="translate(21,219)"/>
<path d="M0 0 C1.98 0 3.96 0 6 0 C6 0.33 6 0.66 6 1 C4.02 1 2.04 1 0 1 C0 0.67 0 0.34 0 0 Z " fill="#235682" transform="translate(287,21)"/>
<path d="M0 0 C1.98 0 3.96 0 6 0 C6 0.33 6 0.66 6 1 C4.02 1 2.04 1 0 1 C0 0.67 0 0.34 0 0 Z " fill="#245681" transform="translate(219,21)"/>
<path d="M0 0 C1.65 0 3.3 0 5 0 C5 0.33 5 0.66 5 1 C3.35 1 1.7 1 0 1 C0 0.67 0 0.34 0 0 Z " fill="#25536C" transform="translate(293,489)"/>
<path d="M0 0 C1.65 0 3.3 0 5 0 C5 0.33 5 0.66 5 1 C3.35 1 1.7 1 0 1 C0 0.67 0 0.34 0 0 Z " fill="#24536C" transform="translate(214,489)"/>
<path d="M0 0 C0.33 0 0.66 0 1 0 C1 1.65 1 3.3 1 5 C0.67 5 0.34 5 0 5 C0 3.35 0 1.7 0 0 Z " fill="#24536B" transform="translate(489,293)"/>
<path d="M0 0 C0.33 0 0.66 0 1 0 C1 1.65 1 3.3 1 5 C0.67 5 0.34 5 0 5 C0 3.35 0 1.7 0 0 Z " fill="#24516A" transform="translate(22,293)"/>
<path d="M0 0 C0.33 0 0.66 0 1 0 C1 1.65 1 3.3 1 5 C0.67 5 0.34 5 0 5 C0 3.35 0 1.7 0 0 Z " fill="#25516B" transform="translate(489,214)"/>
<path d="M0 0 C0.33 0 0.66 0 1 0 C1 1.65 1 3.3 1 5 C0.67 5 0.34 5 0 5 C0 3.35 0 1.7 0 0 Z " fill="#24506A" transform="translate(22,214)"/>
<path d="M0 0 C1.65 0 3.3 0 5 0 C5 0.33 5 0.66 5 1 C3.35 1 1.7 1 0 1 C0 0.67 0 0.34 0 0 Z " fill="#23526B" transform="translate(293,22)"/>
<path d="M0 0 C1.65 0 3.3 0 5 0 C5 0.33 5 0.66 5 1 C3.35 1 1.7 1 0 1 C0 0.67 0 0.34 0 0 Z " fill="#25526E" transform="translate(214,22)"/>
<path d="M0 0 C4 1 4 1 4 1 Z " fill="#194882" transform="translate(299,488)"/>
<path d="M0 0 C4 1 4 1 4 1 Z " fill="#1A4983" transform="translate(209,488)"/>
<path d="M0 0 C4 1 4 1 4 1 Z " fill="#244D77" transform="translate(304,487)"/>
<path d="M0 0 C4 1 4 1 4 1 Z " fill="#234E78" transform="translate(204,487)"/>
<path d="M0 0 C1 4 1 4 1 4 Z " fill="#224771" transform="translate(487,304)"/>
<path d="M0 0 C1 4 1 4 1 4 Z " fill="#214671" transform="translate(24,304)"/>
<path d="M0 0 C1 4 1 4 1 4 Z " fill="#1A4683" transform="translate(488,299)"/>
<path d="M0 0 C1 4 1 4 1 4 Z " fill="#1A4682" transform="translate(23,299)"/>
<path d="M0 0 C1 4 1 4 1 4 Z " fill="#1B4783" transform="translate(488,209)"/>
<path d="M0 0 C1 4 1 4 1 4 Z " fill="#1B4785" transform="translate(23,209)"/>
<path d="M0 0 C1 4 1 4 1 4 Z " fill="#214670" transform="translate(487,204)"/>
<path d="M0 0 C1 4 1 4 1 4 Z " fill="#224771" transform="translate(24,204)"/>
<path d="M0 0 C4 1 4 1 4 1 Z " fill="#214D74" transform="translate(304,24)"/>
<path d="M0 0 C4 1 4 1 4 1 Z " fill="#234F75" transform="translate(204,24)"/>
<path d="M0 0 C4 1 4 1 4 1 Z " fill="#184682" transform="translate(299,23)"/>
<path d="M0 0 C4 1 4 1 4 1 Z " fill="#1A4782" transform="translate(209,23)"/>
<path d="M0 0 C3 1 3 1 3 1 Z " fill="#204C6C" transform="translate(313,485)"/>
<path d="M0 0 C3 1 3 1 3 1 Z " fill="#1F4D6E" transform="translate(196,485)"/>
<path d="M0 0 C3 1 3 1 3 1 Z " fill="#255581" transform="translate(317,484)"/>
<path d="M0 0 C3 1 3 1 3 1 Z " fill="#24577F" transform="translate(192,484)"/>
<path d="M0 0 C3 1 3 1 3 1 Z " fill="#234F77" transform="translate(320,483)"/>
<path d="M0 0 C3 1 3 1 3 1 Z " fill="#245276" transform="translate(189,483)"/>
<path d="M0 0 C3 1 3 1 3 1 Z " fill="#295971" transform="translate(327,481)"/>
<path d="M0 0 C3 1 3 1 3 1 Z " fill="#2A5A70" transform="translate(182,481)"/>
<path d="M0 0 C3 1 3 1 3 1 Z " fill="#22567F" transform="translate(330,480)"/>
<path d="M0 0 C3 1 3 1 3 1 Z " fill="#24567E" transform="translate(179,480)"/>
<path d="" fill="#23597F" transform="translate(0,0)"/>
<path d="" fill="#25597D" transform="translate(0,0)"/>
<path d="" fill="#24566C" transform="translate(0,0)"/>
<path d="" fill="#24556A" transform="translate(0,0)"/>
<path d="" fill="#1B4073" transform="translate(0,0)"/>
<path d="" fill="#1C3F70" transform="translate(0,0)"/>
<path d="" fill="#235580" transform="translate(0,0)"/>
<path d="" fill="#235583" transform="translate(0,0)"/>
<path d="" fill="#214A80" transform="translate(0,0)"/>
<path d="" fill="#224981" transform="translate(0,0)"/>
<path d="" fill="#215482" transform="translate(0,0)"/>
<path d="" fill="#235385" transform="translate(0,0)"/>
<path d="" fill="#235483" transform="translate(0,0)"/>
<path d="" fill="#225283" transform="translate(0,0)"/>
<path d="" fill="#214881" transform="translate(0,0)"/>
<path d="" fill="#204780" transform="translate(0,0)"/>
<path d="" fill="#225381" transform="translate(0,0)"/>
<path d="" fill="#255382" transform="translate(0,0)"/>
<path d="" fill="#1C4170" transform="translate(0,0)"/>
<path d="" fill="#1C3C70" transform="translate(0,0)"/>
<path d="" fill="#23546D" transform="translate(0,0)"/>
<path d="" fill="#20536A" transform="translate(0,0)"/>
<path d="" fill="#24577F" transform="translate(0,0)"/>
<path d="" fill="#23567F" transform="translate(0,0)"/>
<path d="M0 0 C3 1 3 1 3 1 Z " fill="#22557F" transform="translate(330,31)"/>
<path d="M0 0 C3 1 3 1 3 1 Z " fill="#225581" transform="translate(179,31)"/>
<path d="M0 0 C3 1 3 1 3 1 Z " fill="#295A70" transform="translate(327,30)"/>
<path d="M0 0 C3 1 3 1 3 1 Z " fill="#275871" transform="translate(182,30)"/>
<path d="M0 0 C3 1 3 1 3 1 Z " fill="#245075" transform="translate(320,28)"/>
<path d="M0 0 C3 1 3 1 3 1 Z " fill="#245681" transform="translate(317,27)"/>
<path d="M0 0 C3 1 3 1 3 1 Z " fill="#255781" transform="translate(192,27)"/>
<path d="M0 0 C3 1 3 1 3 1 Z " fill="#214E5E" transform="translate(313,26)"/>
<path d="M0 0 C3 1 3 1 3 1 Z " fill="#1E4D66" transform="translate(196,26)"/>
<path d="M0 0 C2 1 2 1 2 1 Z " fill="#1E4D7D" transform="translate(324,482)"/>
<path d="M0 0 C2 1 2 1 2 1 Z " fill="#1B4E7A" transform="translate(186,482)"/>
<path d="M0 0 C2 1 2 1 2 1 Z " fill="#1C4F63" transform="translate(333,479)"/>
<path d="M0 0 C2 1 2 1 2 1 Z " fill="#1D5163" transform="translate(177,479)"/>
<path d="M0 0 C2 1 2 1 2 1 Z " fill="#21557E" transform="translate(336,478)"/>
<path d="M0 0 C2 1 2 1 2 1 Z " fill="#22537D" transform="translate(174,478)"/>
<path d="M0 0 C2 1 2 1 2 1 Z " fill="#18487E" transform="translate(341,476)"/>
<path d="M0 0 C2 1 2 1 2 1 Z " fill="#184A7E" transform="translate(169,476)"/>
<path d="M0 0 C2 1 2 1 2 1 Z " fill="#285786" transform="translate(344,475)"/>
<path d="M0 0 C2 1 2 1 2 1 Z " fill="#295981" transform="translate(166,475)"/>
<path d="M0 0 C2 1 2 1 2 1 Z " fill="#1C4F7D" transform="translate(346,474)"/>
<path d="M0 0 C2 1 2 1 2 1 Z " fill="#1C507D" transform="translate(164,474)"/>
<path d="M0 0 C2 1 2 1 2 1 Z " fill="#13456D" transform="translate(348,473)"/>
<path d="M0 0 C2 1 2 1 2 1 Z " fill="#144772" transform="translate(162,473)"/>
<path d="M0 0 C2 1 2 1 2 1 Z " fill="#23577F" transform="translate(351,472)"/>
<path d="M0 0 C2 1 2 1 2 1 Z " fill="#255A81" transform="translate(159,472)"/>
<path d="M0 0 C2 1 2 1 2 1 Z " fill="#225672" transform="translate(353,471)"/>
<path d="M0 0 C2 1 2 1 2 1 Z " fill="#225471" transform="translate(157,471)"/>
<path d="M0 0 C2 1 2 1 2 1 Z " fill="#1E527E" transform="translate(355,470)"/>
<path d="M0 0 C2 1 2 1 2 1 Z " fill="#1D537D" transform="translate(155,470)"/>
<path d="M0 0 C2 1 2 1 2 1 Z " fill="#205378" transform="translate(357,469)"/>
<path d="M0 0 C2 1 2 1 2 1 Z " fill="#1E5377" transform="translate(153,469)"/>
<path d="M0 0 C2 1 2 1 2 1 Z " fill="#1D4D7E" transform="translate(359,468)"/>
<path d="M0 0 C2 1 2 1 2 1 Z " fill="#1D4F80" transform="translate(151,468)"/>
<path d="M0 0 C2 1 2 1 2 1 Z " fill="#1C506F" transform="translate(361,467)"/>
<path d="M0 0 C2 1 2 1 2 1 Z " fill="#1B4E6F" transform="translate(149,467)"/>
<path d="M0 0 C2 1 2 1 2 1 Z " fill="#225680" transform="translate(363,466)"/>
<path d="M0 0 C2 1 2 1 2 1 Z " fill="#21557F" transform="translate(147,466)"/>
<path d="M0 0 C2 1 2 1 2 1 Z " fill="#1F536F" transform="translate(365,465)"/>
<path d="M0 0 C2 1 2 1 2 1 Z " fill="#25546E" transform="translate(145,465)"/>
<path d="M0 0 C2 1 2 1 2 1 Z " fill="#245780" transform="translate(374,460)"/>
<path d="M0 0 C2 1 2 1 2 1 Z " fill="#225580" transform="translate(136,460)"/>
<path d="M0 0 C2 1 2 1 2 1 Z " fill="#25577F" transform="translate(382,455)"/>
<path d="M0 0 C2 1 2 1 2 1 Z " fill="#24577F" transform="translate(128,455)"/>
<path d="" fill="#1B4585" transform="translate(0,0)"/>
<path d="" fill="#1C4080" transform="translate(0,0)"/>
<path d="" fill="#194369" transform="translate(0,0)"/>
<path d="" fill="#194167" transform="translate(0,0)"/>
<path d="" fill="#1D5571" transform="translate(0,0)"/>
<path d="" fill="#1E5671" transform="translate(0,0)"/>
<path d="" fill="#1B397D" transform="translate(0,0)"/>
<path d="" fill="#19367C" transform="translate(0,0)"/>
<path d="" fill="#164676" transform="translate(0,0)"/>
<path d="" fill="#174575" transform="translate(0,0)"/>
<path d="" fill="#184A6E" transform="translate(0,0)"/>
<path d="" fill="#194A70" transform="translate(0,0)"/>
<path d="" fill="#174386" transform="translate(0,0)"/>
<path d="" fill="#17467D" transform="translate(0,0)"/>
<path d="" fill="#245D75" transform="translate(0,0)"/>
<path d="" fill="#235A6F" transform="translate(0,0)"/>
<path d="" fill="#1B5279" transform="translate(0,0)"/>
<path d="" fill="#1E5177" transform="translate(0,0)"/>
<path d="" fill="#1B4C6F" transform="translate(0,0)"/>
<path d="" fill="#1C4B70" transform="translate(0,0)"/>
<path d="" fill="#163970" transform="translate(0,0)"/>
<path d="" fill="#133970" transform="translate(0,0)"/>
<path d="" fill="#1A4275" transform="translate(0,0)"/>
<path d="" fill="#184074" transform="translate(0,0)"/>
<path d="" fill="#133C71" transform="translate(0,0)"/>
<path d="" fill="#133A71" transform="translate(0,0)"/>
<path d="" fill="#153D69" transform="translate(0,0)"/>
<path d="" fill="#153B69" transform="translate(0,0)"/>
<path d="" fill="#184A7C" transform="translate(0,0)"/>
<path d="" fill="#16497B" transform="translate(0,0)"/>
<path d="" fill="#24557C" transform="translate(0,0)"/>
<path d="" fill="#25567E" transform="translate(0,0)"/>
<path d="" fill="#275C82" transform="translate(0,0)"/>
<path d="" fill="#245B81" transform="translate(0,0)"/>
<path d="" fill="#1B517F" transform="translate(0,0)"/>
<path d="" fill="#1B5181" transform="translate(0,0)"/>
<path d="" fill="#295A82" transform="translate(0,0)"/>
<path d="" fill="#2A5A84" transform="translate(0,0)"/>
<path d="" fill="#13427A" transform="translate(0,0)"/>
<path d="" fill="#13427C" transform="translate(0,0)"/>
<path d="" fill="#2B588D" transform="translate(0,0)"/>
<path d="" fill="#2A548B" transform="translate(0,0)"/>
<path d="" fill="#20537F" transform="translate(0,0)"/>
<path d="" fill="#20517F" transform="translate(0,0)"/>
<path d="" fill="#174E5A" transform="translate(0,0)"/>
<path d="" fill="#174E5A" transform="translate(0,0)"/>
<path d="" fill="#1B4B7C" transform="translate(0,0)"/>
<path d="" fill="#1A4A7C" transform="translate(0,0)"/>
<path d="" fill="#184C7C" transform="translate(0,0)"/>
<path d="" fill="#184B7D" transform="translate(0,0)"/>
<path d="" fill="#164C5C" transform="translate(0,0)"/>
<path d="" fill="#194D5D" transform="translate(0,0)"/>
<path d="" fill="#20527F" transform="translate(0,0)"/>
<path d="" fill="#20507E" transform="translate(0,0)"/>
<path d="" fill="#29548B" transform="translate(0,0)"/>
<path d="" fill="#2B528C" transform="translate(0,0)"/>
<path d="" fill="#11437C" transform="translate(0,0)"/>
<path d="" fill="#124079" transform="translate(0,0)"/>
<path d="" fill="#285884" transform="translate(0,0)"/>
<path d="" fill="#285884" transform="translate(0,0)"/>
<path d="" fill="#1D5082" transform="translate(0,0)"/>
<path d="" fill="#1B4D87" transform="translate(0,0)"/>
<path d="" fill="#255A81" transform="translate(0,0)"/>
<path d="" fill="#23587F" transform="translate(0,0)"/>
<path d="" fill="#25557A" transform="translate(0,0)"/>
<path d="" fill="#23557A" transform="translate(0,0)"/>
<path d="" fill="#184B7A" transform="translate(0,0)"/>
<path d="" fill="#174877" transform="translate(0,0)"/>
<path d="" fill="#143969" transform="translate(0,0)"/>
<path d="" fill="#163766" transform="translate(0,0)"/>
<path d="" fill="#123971" transform="translate(0,0)"/>
<path d="" fill="#133770" transform="translate(0,0)"/>
<path d="" fill="#184177" transform="translate(0,0)"/>
<path d="" fill="#173F77" transform="translate(0,0)"/>
<path d="" fill="#153870" transform="translate(0,0)"/>
<path d="" fill="#143872" transform="translate(0,0)"/>
<path d="" fill="#17486D" transform="translate(0,0)"/>
<path d="" fill="#184870" transform="translate(0,0)"/>
<path d="" fill="#1C5078" transform="translate(0,0)"/>
<path d="" fill="#1A4F79" transform="translate(0,0)"/>
<path d="" fill="#235974" transform="translate(0,0)"/>
<path d="" fill="#235875" transform="translate(0,0)"/>
<path d="" fill="#17457D" transform="translate(0,0)"/>
<path d="" fill="#17407B" transform="translate(0,0)"/>
<path d="" fill="#184A70" transform="translate(0,0)"/>
<path d="" fill="#164970" transform="translate(0,0)"/>
<path d="" fill="#164477" transform="translate(0,0)"/>
<path d="" fill="#173C75" transform="translate(0,0)"/>
<path d="" fill="#1D5175" transform="translate(0,0)"/>
<path d="" fill="#1D5077" transform="translate(0,0)"/>
<path d="" fill="#17406C" transform="translate(0,0)"/>
<path d="" fill="#1B3781" transform="translate(0,0)"/>
<path d="M0 0 C2 1 2 1 2 1 Z " fill="#265683" transform="translate(382,56)"/>
<path d="M0 0 C2 1 2 1 2 1 Z " fill="#245783" transform="translate(128,56)"/>
<path d="M0 0 C2 1 2 1 2 1 Z " fill="#225482" transform="translate(374,51)"/>
<path d="M0 0 C2 1 2 1 2 1 Z " fill="#225382" transform="translate(136,51)"/>
<path d="M0 0 C2 1 2 1 2 1 Z " fill="#1E526D" transform="translate(365,46)"/>
<path d="M0 0 C2 1 2 1 2 1 Z " fill="#20526E" transform="translate(145,46)"/>
<path d="M0 0 C2 1 2 1 2 1 Z " fill="#245781" transform="translate(363,45)"/>
<path d="M0 0 C2 1 2 1 2 1 Z " fill="#225682" transform="translate(147,45)"/>
<path d="M0 0 C2 1 2 1 2 1 Z " fill="#1D5073" transform="translate(361,44)"/>
<path d="M0 0 C2 1 2 1 2 1 Z " fill="#1B4F6F" transform="translate(149,44)"/>
<path d="M0 0 C2 1 2 1 2 1 Z " fill="#1B4E7D" transform="translate(151,43)"/>
<path d="M0 0 C2 1 2 1 2 1 Z " fill="#205378" transform="translate(357,42)"/>
<path d="M0 0 C2 1 2 1 2 1 Z " fill="#1F5279" transform="translate(153,42)"/>
<path d="M0 0 C2 1 2 1 2 1 Z " fill="#1D4F7D" transform="translate(355,41)"/>
<path d="M0 0 C2 1 2 1 2 1 Z " fill="#1B4E7E" transform="translate(155,41)"/>
<path d="M0 0 C2 1 2 1 2 1 Z " fill="#205474" transform="translate(353,40)"/>
<path d="M0 0 C2 1 2 1 2 1 Z " fill="#215375" transform="translate(157,40)"/>
<path d="M0 0 C2 1 2 1 2 1 Z " fill="#215780" transform="translate(351,39)"/>
<path d="M0 0 C2 1 2 1 2 1 Z " fill="#245780" transform="translate(159,39)"/>
<path d="M0 0 C2 1 2 1 2 1 Z " fill="#10406D" transform="translate(348,38)"/>
<path d="M0 0 C2 1 2 1 2 1 Z " fill="#1B4D7A" transform="translate(346,37)"/>
<path d="M0 0 C2 1 2 1 2 1 Z " fill="#1A4D7F" transform="translate(164,37)"/>
<path d="M0 0 C2 1 2 1 2 1 Z " fill="#2A5688" transform="translate(344,36)"/>
<path d="M0 0 C2 1 2 1 2 1 Z " fill="#275881" transform="translate(166,36)"/>
<path d="M0 0 C2 1 2 1 2 1 Z " fill="#18487C" transform="translate(341,35)"/>
<path d="M0 0 C2 1 2 1 2 1 Z " fill="#15477B" transform="translate(169,35)"/>
<path d="M0 0 C2 1 2 1 2 1 Z " fill="#225580" transform="translate(336,33)"/>
<path d="M0 0 C2 1 2 1 2 1 Z " fill="#215280" transform="translate(174,33)"/>
<path d="M0 0 C2 1 2 1 2 1 Z " fill="#194D61" transform="translate(333,32)"/>
<path d="M0 0 C2 1 2 1 2 1 Z " fill="#1B4F64" transform="translate(177,32)"/>
<path d="M0 0 C2 1 2 1 2 1 Z " fill="#1A4B7A" transform="translate(324,29)"/>
<path d="M0 0 C2 1 2 1 2 1 Z " fill="#1B4D7C" transform="translate(186,29)"/>
<path d="" fill="#1E4C81" transform="translate(0,0)"/>
<path d="" fill="#1E4C83" transform="translate(0,0)"/>
<path d="" fill="#235783" transform="translate(0,0)"/>
<path d="" fill="#235783" transform="translate(0,0)"/>
<path d="" fill="#1F547B" transform="translate(0,0)"/>
<path d="" fill="#1E527B" transform="translate(0,0)"/>
<path d="" fill="#1F537D" transform="translate(0,0)"/>
<path d="" fill="#23557F" transform="translate(0,0)"/>
<path d="" fill="#275482" transform="translate(0,0)"/>
<path d="" fill="#245294" transform="translate(0,0)"/>
<path d="" fill="#285E75" transform="translate(0,0)"/>
<path d="" fill="#275E77" transform="translate(0,0)"/>
<path d="" fill="#1E4D7D" transform="translate(0,0)"/>
<path d="" fill="#1D4E7F" transform="translate(0,0)"/>
<path d="" fill="#264F91" transform="translate(0,0)"/>
<path d="" fill="#23508E" transform="translate(0,0)"/>
<path d="" fill="#1B5077" transform="translate(0,0)"/>
<path d="" fill="#1B5077" transform="translate(0,0)"/>
<path d="" fill="#296273" transform="translate(0,0)"/>
<path d="" fill="#2A6276" transform="translate(0,0)"/>
<path d="" fill="#2B5F7D" transform="translate(0,0)"/>
<path d="" fill="#275B7A" transform="translate(0,0)"/>
<path d="" fill="#1F5080" transform="translate(0,0)"/>
<path d="" fill="#1A4E7C" transform="translate(0,0)"/>
<path d="" fill="#1A4E78" transform="translate(0,0)"/>
<path d="" fill="#174B76" transform="translate(0,0)"/>
<path d="" fill="#285F85" transform="translate(0,0)"/>
<path d="" fill="#2A5C84" transform="translate(0,0)"/>
<path d="" fill="#2A5E8A" transform="translate(0,0)"/>
<path d="" fill="#2B5C89" transform="translate(0,0)"/>
<path d="" fill="#245488" transform="translate(0,0)"/>
<path d="" fill="#235387" transform="translate(0,0)"/>
<path d="" fill="#275790" transform="translate(0,0)"/>
<path d="" fill="#25558D" transform="translate(0,0)"/>
<path d="" fill="#1A4F76" transform="translate(0,0)"/>
<path d="" fill="#1A4F74" transform="translate(0,0)"/>
<path d="" fill="#20527F" transform="translate(0,0)"/>
<path d="" fill="#1E527B" transform="translate(0,0)"/>
<path d="" fill="#124672" transform="translate(0,0)"/>
<path d="" fill="#114571" transform="translate(0,0)"/>
<path d="" fill="#174F7C" transform="translate(0,0)"/>
<path d="" fill="#1B4F7D" transform="translate(0,0)"/>
<path d="" fill="#104678" transform="translate(0,0)"/>
<path d="" fill="#114477" transform="translate(0,0)"/>
<path d="" fill="#114379" transform="translate(0,0)"/>
<path d="" fill="#114178" transform="translate(0,0)"/>
<path d="" fill="#194982" transform="translate(0,0)"/>
<path d="" fill="#184881" transform="translate(0,0)"/>
<path d="" fill="#0E3D7A" transform="translate(0,0)"/>
<path d="" fill="#0F3E7B" transform="translate(0,0)"/>
<path d="" fill="#0C3F74" transform="translate(0,0)"/>
<path d="" fill="#0D4073" transform="translate(0,0)"/>
<path d="" fill="#1A5177" transform="translate(0,0)"/>
<path d="" fill="#1A4F74" transform="translate(0,0)"/>
<path d="" fill="#215090" transform="translate(0,0)"/>
<path d="" fill="#23508E" transform="translate(0,0)"/>
<path d="" fill="#1D4B8B" transform="translate(0,0)"/>
<path d="" fill="#204C8A" transform="translate(0,0)"/>
<path d="" fill="#205288" transform="translate(0,0)"/>
<path d="" fill="#235387" transform="translate(0,0)"/>
<path d="" fill="#235787" transform="translate(0,0)"/>
<path d="" fill="#235783" transform="translate(0,0)"/>
<path d="" fill="#285C88" transform="translate(0,0)"/>
<path d="" fill="#275B85" transform="translate(0,0)"/>
<path d="" fill="#2A6082" transform="translate(0,0)"/>
<path d="" fill="#2A6285" transform="translate(0,0)"/>
<path d="" fill="#326385" transform="translate(0,0)"/>
<path d="" fill="#2F6384" transform="translate(0,0)"/>
<path d="" fill="#194A7C" transform="translate(0,0)"/>
<path d="" fill="#174877" transform="translate(0,0)"/>
<path d="" fill="#225682" transform="translate(0,0)"/>
<path d="" fill="#235881" transform="translate(0,0)"/>
<path d="" fill="#255B78" transform="translate(0,0)"/>
<path d="" fill="#255B78" transform="translate(0,0)"/>
<path d="" fill="#28676D" transform="translate(0,0)"/>
<path d="" fill="#29656C" transform="translate(0,0)"/>
<path d="" fill="#29743B" transform="translate(0,0)"/>
<path d="" fill="#28703D" transform="translate(0,0)"/>
<path d="" fill="#0A3F64" transform="translate(0,0)"/>
<path d="" fill="#0D4269" transform="translate(0,0)"/>
<path d="" fill="#20508B" transform="translate(0,0)"/>
<path d="" fill="#20508B" transform="translate(0,0)"/>
<path d="" fill="#265A86" transform="translate(0,0)"/>
<path d="" fill="#265A86" transform="translate(0,0)"/>
<path d="" fill="#184B7C" transform="translate(0,0)"/>
<path d="" fill="#184B7C" transform="translate(0,0)"/>
<path d="" fill="#235D72" transform="translate(0,0)"/>
<path d="" fill="#255C74" transform="translate(0,0)"/>
<path d="" fill="#214A93" transform="translate(0,0)"/>
<path d="" fill="#1F4794" transform="translate(0,0)"/>
<path d="" fill="#275986" transform="translate(0,0)"/>
<path d="" fill="#275986" transform="translate(0,0)"/>
<path d="" fill="#204F8D" transform="translate(0,0)"/>
<path d="" fill="#205089" transform="translate(0,0)"/>
<path d="" fill="#194B78" transform="translate(0,0)"/>
<path d="" fill="#184A76" transform="translate(0,0)"/>
<path d="" fill="#2D6087" transform="translate(0,0)"/>
<path d="" fill="#2B5E83" transform="translate(0,0)"/>
<path d="" fill="#215583" transform="translate(0,0)"/>
<path d="" fill="#205482" transform="translate(0,0)"/>
<path d="" fill="#1F537D" transform="translate(0,0)"/>
<path d="" fill="#20527D" transform="translate(0,0)"/>
<path d="" fill="#275B85" transform="translate(0,0)"/>
<path d="" fill="#275984" transform="translate(0,0)"/>
<path d="" fill="#1E4F80" transform="translate(0,0)"/>
<path d="" fill="#204E7E" transform="translate(0,0)"/>
<path d="" fill="#285B83" transform="translate(0,0)"/>
<path d="" fill="#345F50" transform="translate(0,0)"/>
<path d="" fill="#1F547B" transform="translate(0,0)"/>
<path d="" fill="#205676" transform="translate(0,0)"/>
<path d="" fill="#275A7E" transform="translate(0,0)"/>
<path d="" fill="#255979" transform="translate(0,0)"/>
<path d="" fill="#24567E" transform="translate(0,0)"/>
<path d="" fill="#245586" transform="translate(0,0)"/>
<path d="" fill="#1F5275" transform="translate(0,0)"/>
<path d="" fill="#1E5375" transform="translate(0,0)"/>
<path d="" fill="#325F4B" transform="translate(0,0)"/>
<path d="" fill="#2E614D" transform="translate(0,0)"/>
<path d="" fill="#1C4C7E" transform="translate(0,0)"/>
<path d="" fill="#1E4C81" transform="translate(0,0)"/>
<path d="" fill="#255984" transform="translate(0,0)"/>
<path d="" fill="#255886" transform="translate(0,0)"/>
<path d="" fill="#1C507C" transform="translate(0,0)"/>
<path d="" fill="#1E507C" transform="translate(0,0)"/>
<path d="" fill="#1F5285" transform="translate(0,0)"/>
<path d="" fill="#1E5088" transform="translate(0,0)"/>
<path d="" fill="#2B5B86" transform="translate(0,0)"/>
<path d="" fill="#2B5D85" transform="translate(0,0)"/>
<path d="" fill="#194C72" transform="translate(0,0)"/>
<path d="" fill="#184D70" transform="translate(0,0)"/>
<path d="" fill="#366356" transform="translate(0,0)"/>
<path d="" fill="#346746" transform="translate(0,0)"/>
<path d="" fill="#215273" transform="translate(0,0)"/>
<path d="" fill="#205170" transform="translate(0,0)"/>
<path d="" fill="#245586" transform="translate(0,0)"/>
<path d="" fill="#255589" transform="translate(0,0)"/>
<path d="" fill="#1B4786" transform="translate(0,0)"/>
<path d="" fill="#1A4987" transform="translate(0,0)"/>
<path d="" fill="#295E85" transform="translate(0,0)"/>
<path d="" fill="#2A5F86" transform="translate(0,0)"/>
<path d="" fill="#225976" transform="translate(0,0)"/>
<path d="" fill="#225976" transform="translate(0,0)"/>
<path d="" fill="#18497D" transform="translate(0,0)"/>
<path d="" fill="#1A4B7F" transform="translate(0,0)"/>
<path d="" fill="#306089" transform="translate(0,0)"/>
<path d="" fill="#255889" transform="translate(0,0)"/>
<path d="" fill="#255687" transform="translate(0,0)"/>
<path d="" fill="#1E4D8A" transform="translate(0,0)"/>
<path d="" fill="#1C4E8A" transform="translate(0,0)"/>
<path d="" fill="#093D69" transform="translate(0,0)"/>
<path d="" fill="#0B3F6B" transform="translate(0,0)"/>
<path d="" fill="#2A6B4C" transform="translate(0,0)"/>
<path d="" fill="#266A4F" transform="translate(0,0)"/>
<path d="" fill="#256071" transform="translate(0,0)"/>
<path d="" fill="#225F73" transform="translate(0,0)"/>
<path d="" fill="#205578" transform="translate(0,0)"/>
<path d="" fill="#205578" transform="translate(0,0)"/>
<path d="" fill="#1E5084" transform="translate(0,0)"/>
<path d="" fill="#194C7D" transform="translate(0,0)"/>
<path d="" fill="#103E75" transform="translate(0,0)"/>
<path d="" fill="#103E75" transform="translate(0,0)"/>
<path d="" fill="#2F5F85" transform="translate(0,0)"/>
<path d="" fill="#2C6087" transform="translate(0,0)"/>
<path d="" fill="#285A85" transform="translate(0,0)"/>
<path d="" fill="#2A5C84" transform="translate(0,0)"/>
<path d="" fill="#285A89" transform="translate(0,0)"/>
<path d="" fill="#265786" transform="translate(0,0)"/>
<path d="" fill="#245488" transform="translate(0,0)"/>
<path d="" fill="#215286" transform="translate(0,0)"/>
<path d="" fill="#1F5189" transform="translate(0,0)"/>
<path d="" fill="#1F5187" transform="translate(0,0)"/>
<path d="" fill="#204D79" transform="translate(0,0)"/>
<path d="" fill="#1F4C76" transform="translate(0,0)"/>
<path d="" fill="#204D7B" transform="translate(0,0)"/>
<path d="" fill="#1D4978" transform="translate(0,0)"/>
<path d="" fill="#184B7A" transform="translate(0,0)"/>
<path d="" fill="#184B7C" transform="translate(0,0)"/>
<path d="" fill="#103F7A" transform="translate(0,0)"/>
<path d="" fill="#0C3C77" transform="translate(0,0)"/>
<path d="" fill="#0F3B7C" transform="translate(0,0)"/>
<path d="" fill="#0F3B7C" transform="translate(0,0)"/>
<path d="" fill="#17477F" transform="translate(0,0)"/>
<path d="" fill="#194984" transform="translate(0,0)"/>
<path d="" fill="#13467B" transform="translate(0,0)"/>
<path d="" fill="#13437C" transform="translate(0,0)"/>
<path d="" fill="#0B3D75" transform="translate(0,0)"/>
<path d="" fill="#104078" transform="translate(0,0)"/>
<path d="" fill="#194B81" transform="translate(0,0)"/>
<path d="" fill="#1A4D80" transform="translate(0,0)"/>
<path d="" fill="#124375" transform="translate(0,0)"/>
<path d="" fill="#124375" transform="translate(0,0)"/>
<path d="" fill="#21516E" transform="translate(0,0)"/>
<path d="" fill="#215271" transform="translate(0,0)"/>
<path d="" fill="#1D5068" transform="translate(0,0)"/>
<path d="" fill="#1C506A" transform="translate(0,0)"/>
<path d="" fill="#275190" transform="translate(0,0)"/>
<path d="" fill="#27538F" transform="translate(0,0)"/>
<path d="" fill="#24518B" transform="translate(0,0)"/>
<path d="" fill="#24518B" transform="translate(0,0)"/>
<path d="" fill="#2A5A8C" transform="translate(0,0)"/>
<path d="" fill="#2A5B8A" transform="translate(0,0)"/>
<path d="" fill="#275984" transform="translate(0,0)"/>
<path d="" fill="#265A84" transform="translate(0,0)"/>
<path d="" fill="#306185" transform="translate(0,0)"/>
<path d="" fill="#276184" transform="translate(0,0)"/>
<path d="" fill="#194C7D" transform="translate(0,0)"/>
<path d="" fill="#19467D" transform="translate(0,0)"/>
<path d="" fill="#18497D" transform="translate(0,0)"/>
<path d="" fill="#275A7E" transform="translate(0,0)"/>
<path d="" fill="#295A7E" transform="translate(0,0)"/>
<path d="" fill="#255F75" transform="translate(0,0)"/>
<path d="" fill="#275E77" transform="translate(0,0)"/>
<path d="" fill="#235191" transform="translate(0,0)"/>
<path d="" fill="#234F92" transform="translate(0,0)"/>
<path d="" fill="#24538C" transform="translate(0,0)"/>
<path d="" fill="#24538C" transform="translate(0,0)"/>
<path d="" fill="#1E4D7F" transform="translate(0,0)"/>
<path d="" fill="#1C4C7E" transform="translate(0,0)"/>
<path d="" fill="#2A5C7B" transform="translate(0,0)"/>
<path d="" fill="#255977" transform="translate(0,0)"/>
<path d="" fill="#23566E" transform="translate(0,0)"/>
<path d="" fill="#28546C" transform="translate(0,0)"/>
<path d="" fill="#1F537D" transform="translate(0,0)"/>
<path d="" fill="#1F537D" transform="translate(0,0)"/>
<path d="" fill="#1F537D" transform="translate(0,0)"/>
<path d="" fill="#1E4F7E" transform="translate(0,0)"/>
<path d="" fill="#205384" transform="translate(0,0)"/>
<path d="" fill="#215485" transform="translate(0,0)"/>
</svg>
